# xmcd
#
# Track frame offsets:
#	150
#	14400
#	28302
#	37825
#	49327
#	58325
#	70032
#	82642
#	94662
#	106030
#	119802
#	131842
#	143107
#	161127
#	174072
#	186467
#	198122
#	207607
#	222147
#	233687
#	243435
#	256162
#
# Disc length: 3544 seconds
#
# Revision: 3
# Processed by: cddbd v1.5.2PL0 Copyright (c) Steve Scherf et al.
# Submitted via: audiograbber 1.83.01
#
DISCID=370dd616
DTITLE=Various Artist - The Greatest Country Stars Of The 20th Century (Reader
DTITLE='s Digest) [Disc 2]
DYEAR=2003
DGENRE=Country
TTITLE0=Rex Allen - Crying In The Chapel (1953)
TTITLE1=Buddy Williams - Missing In Action (1953)
TTITLE2=Webb Pierce - In The Jailhouse Now (1955)
TTITLE3=Slim Whitman - The Cattle Call (1955)
TTITLE4=Chet Atkins - The Poor People Of Paris (1956)
TTITLE5=Ray Price - Crazy Arms (1956)
TTITLE6=Slim Dusty - The Answer To A Pub With No Beer (1958)
TTITLE7=Don Gibson - I Can't Stop Loving You (1958)
TTITLE8=Hank Locklin - Send Me The Pillow You Dream On (1958)
TTITLE9=Johnny Cash - Don't Take Your Guns To Town (1959)
TTITLE10=The Browns - Scarlet Ribbons (For Her Hair) (1959)
TTITLE11=Stonewall Jackson - Waterloo (1959)
TTITLE12=Marty Robbins - Big Iron (1960)
TTITLE13=Johnny Horton - North To Alaska (1960)
TTITLE14=Patsy Cline - Crazy (1961)
TTITLE15=Kevin Shegog - Little Kangaroo (1961)
TTITLE16=Floyd Cramer - Chattanooga Choo Choo (1962)
TTITLE17=Jimmy Dean - PT 109 (1962)
TTITLE18=Claude King - The Burning Of Atlanta (1962)
TTITLE19=Frank Ifield - She Taught Me How To Yodel (1962)
TTITLE20=Bill Anderson - Still (1963)
TTITLE21=Dave Dudley - Cowboy Boots (1963)
EXTD=Cd 2 of 4 YEAR: 2003
EXTT0=
EXTT1=
EXTT2=
EXTT3=
EXTT4=
EXTT5=
EXTT6=
EXTT7=
EXTT8=
EXTT9=
EXTT10=
EXTT11=
EXTT12=
EXTT13=
EXTT14=
EXTT15=
EXTT16=
EXTT17=
EXTT18=
EXTT19=
EXTT20=
EXTT21=
PLAYORDER=
